<svg xmlns="http://www.w3.org/2000/svg" viewBox="0 0 354.91 9"><defs><style>.cls-1{fill:#fff;}.cls-2{fill:#3f7f00;}</style></defs><title>Asset 2</title><g id="Layer_2" data-name="Layer 2"><g id="Layer_2-2" data-name="Layer 2"><rect class="cls-1" width="354.91" height="9"/></g><g id="Layer_1-2" data-name="Layer 1"><path id="path2383" class="cls-2" d="M114.57,4.84a1.59,1.59,0,0,0-.11-2.28c-1-.61-2.13.66-1.62,1.93A4.24,4.24,0,0,0,116.35,7c3.77.55,11.22-2.84,15.95-3.87,3.51-.77,5.66.39,6.81,1.67-2.38-1.39-4.55-.91-6.78-.57-5.12.78-10.42,4.11-16,3.59-2.62-.32-4.46-2.47-4.3-4.15a2,2,0,0,1,.09-.44,2.11,2.11,0,0,1,1.49-1.53A1.68,1.68,0,0,1,114.57,4.84Z"/><path id="path2390" class="cls-2" d="M113.28,5.55a38.4,38.4,0,0,0-3.07-2.46C100.17-2.4,95,5,100.17,7.15a3.25,3.25,0,0,0,3.62-.78,3.57,3.57,0,0,1-3.71.13c-1.76-1.25-1.14-3,.93-3.84,3.27-1,6.21.07,8.8,1.6a37.89,37.89,0,0,0,3.8,1.89c-.84,0-.4-.89-1.2-1.32l.88.72h0Z"/><path id="path2479" class="cls-2" d="M159.67,4.5a1.55,1.55,0,0,0,.12,2.3c1.08.62,2.26-.67,1.72-1.95a4.49,4.49,0,0,0-3.74-2.5c-4-.55-11.9,2.86-16.92,3.9-3.72.78-6-.39-7.23-1.68,2.52,1.4,4.82.91,7.19.57,5.43-.79,11-4.14,17-3.62,2.78.33,4.73,2.49,4.57,4.19a1.92,1.92,0,0,1-.09.44,2.19,2.19,0,0,1-1.58,1.54A1.7,1.7,0,0,1,159.67,4.5Z"/><path id="path2481" class="cls-2" d="M160.81,3.48A40,40,0,0,0,164,5.93c10.55,5.45,16-1.91,10.54-4a3.55,3.55,0,0,0-3.8.78,3.93,3.93,0,0,1,3.89-.13c1.85,1.24,1.2,3-1,3.81-3.43,1-6.52-.07-9.23-1.59a40.74,40.74,0,0,0-4-1.88c.89,0,.42.88,1.26,1.31Z"/><path id="path2383-2" data-name="path2383" class="cls-2" d="M194.64,4.84a1.59,1.59,0,0,0-.11-2.28c-1-.61-2.13.66-1.62,1.93A4.24,4.24,0,0,0,196.43,7c3.77.55,11.22-2.84,15.95-3.87,3.51-.77,5.66.39,6.81,1.67-2.38-1.39-4.55-.91-6.78-.57-5.12.78-10.42,4.11-16,3.59-2.62-.32-4.46-2.47-4.3-4.15a2,2,0,0,1,.09-.44,2.11,2.11,0,0,1,1.49-1.53A1.68,1.68,0,0,1,194.64,4.84Z"/><path id="path2390-2" data-name="path2390" class="cls-2" d="M193.36,5.55a38.4,38.4,0,0,0-3.07-2.46c-10.05-5.49-15.2,1.93-10,4.06a3.25,3.25,0,0,0,3.62-.78,3.57,3.57,0,0,1-3.71.13c-1.76-1.25-1.14-3,.93-3.84,3.27-1,6.21.07,8.8,1.6a37.89,37.89,0,0,0,3.8,1.89c-.84,0-.4-.89-1.2-1.32l.88.72h0Z"/><path id="path2479-2" data-name="path2479" class="cls-2" d="M239.74,4.5a1.55,1.55,0,0,0,.12,2.3c1.08.62,2.26-.67,1.72-1.95a4.49,4.49,0,0,0-3.74-2.5c-4-.55-11.9,2.86-16.92,3.9-3.72.78-6-.39-7.23-1.68,2.52,1.4,4.82.91,7.19.57,5.43-.79,11-4.14,17-3.62,2.78.33,4.73,2.49,4.57,4.19a1.92,1.92,0,0,1-.09.44,2.19,2.19,0,0,1-1.58,1.54A1.7,1.7,0,0,1,239.74,4.5Z"/><path id="path2481-2" data-name="path2481" class="cls-2" d="M240.88,3.48a40,40,0,0,0,3.22,2.44c10.55,5.45,16-1.91,10.54-4a3.55,3.55,0,0,0-3.8.78,3.93,3.93,0,0,1,3.89-.13c1.85,1.24,1.2,3-1,3.81-3.43,1-6.52-.07-9.23-1.59a40.74,40.74,0,0,0-4-1.88c.89,0,.42.88,1.26,1.31Z"/></g></g></svg>