<?xml version="1.0"?><svg width="640" height="480" xmlns="http://www.w3.org/2000/svg">
 <title>brown divider</title>
 <metadata id="metadata15">image/svg+xml</metadata>
 <g>
  <title>Layer 1</title>
  <rect fill="#ffffff" stroke-width="1px" x="-5.49997" y="119.000005" width="638.499931" height="161.500003" id="svg_1"/>
  <path fill="#3f7f00" fill-rule="evenodd" stroke-width="1px" d="m130.424789,192.484528c5.347214,-7.567429 3.672729,-18.679031 -0.897858,-21.884766c-8.063118,-5.856277 -16.876259,6.366287 -12.837143,18.526962c4.031113,12.517319 14.122147,21.267746 27.859741,23.769913c29.803345,5.265564 88.753922,-27.178055 126.139771,-37.105835c27.772552,-7.374985 44.737732,3.70697 53.891937,15.980652c-18.814636,-13.327133 -35.962769,-8.691956 -53.610626,-5.4198c-40.492233,7.507782 -82.376175,39.384064 -126.758072,34.370102c-20.720802,-3.09549 -35.239151,-23.671143 -34.04528,-39.805344c0.106049,-1.433762 0.336189,-2.832489 0.697144,-4.180801c2.727554,-9.561676 7.519974,-13.483307 11.765518,-14.646454c11.540581,-3.161896 22.972786,17.871918 7.794868,30.39537z" id="path2383"/>
  <path fill="#3f7f00" fill-rule="evenodd" stroke-width="1px" id="path2390" d="m120.246429,199.318451c-8.213356,-7.288971 -16.686806,-18.60231 -24.247162,-23.606781c-79.487198,-52.615196 -120.226158,18.467361 -79.464817,38.894836c6.289549,3.152084 19.323479,5.044189 28.661079,-7.506348c-11.425961,8.71312 -24.1045,5.721466 -29.34193,1.216339c-13.94232,-11.992645 -9.05301,-29.009338 7.343241,-36.780975c25.825468,-9.860992 49.151747,0.688202 69.563787,15.31662c14.578659,8.735992 18.320061,12.812851 30.067009,18.15094c-6.673828,0.277222 -3.167809,-8.493958 -9.518509,-12.610016l6.937309,6.925385l0,0l-0.000008,0z"/>
  <path fill="#3f7f00" fill-rule="evenodd" stroke-width="1px" d="m487.119385,189.199921c-5.671265,7.631012 -3.895264,18.836304 0.952271,22.069031c8.551758,5.905624 17.89917,-6.419983 13.615234,-18.682968c-4.275269,-12.622757 -14.978088,-21.446869 -29.548309,-23.969986c-31.609894,-5.309998 -94.133331,27.406815 -133.785309,37.418243c-29.45575,7.437042 -47.449219,-3.73822 -57.158203,-16.115265c19.954956,13.439377 38.142334,8.765167 56.859802,5.465454c42.946655,-7.570999 87.369202,-39.715729 134.441101,-34.659546c21.976685,3.121552 37.375,23.870499 36.108826,40.140549c-0.112488,1.445938 -0.356628,2.856339 -0.739441,4.216019c-2.892883,9.642197 -7.975769,13.596756 -12.478638,14.769791c-12.240051,3.188507 -24.365143,-18.0224 -8.267334,-30.651321z" id="path2479"/>
  <path fill="#3f7f00" fill-rule="evenodd" stroke-width="1px" id="path2481" d="m496.146851,179.48291c8.618164,7.231339 17.509277,18.455215 25.442383,23.42012c83.405212,52.199127 126.152222,-18.321335 83.381714,-38.587402c-6.599609,-3.127014 -20.276001,-5.004044 -30.073853,7.447128c11.989197,-8.644226 25.292664,-5.676224 30.788269,-1.206726c14.629578,11.897812 9.499207,28.779938 -7.704895,36.490112c-27.098755,9.78299 -51.574829,-0.68277 -72.993042,-15.195511c-15.297485,-8.666901 -19.223267,-12.711502 -31.549072,-18.007401c7.002808,-0.275024 3.323975,8.426788 9.987793,12.510315l-7.279297,-6.870636z"/>
 </g>
</svg>